<svg xmlns="http://www.w3.org/2000/svg" xmlns:xlink="http://www.w3.org/1999/xlink" width="76" height="76" viewBox="0 0 76 76">
  <defs>
    <clipPath id="clip-path">
      <rect id="Rectangle_20399" data-name="Rectangle 20399" width="61.933" height="38.233" fill="#00ae8e"/>
    </clipPath>
  </defs>
  <g id="Group_50591" data-name="Group 50591" transform="translate(-507 -1278)">
    <g id="Ellipse_174" data-name="Ellipse 174" transform="translate(507 1278)" fill="#fff" stroke="#98d5c5" stroke-width="1">
      <circle cx="38" cy="38" r="38" stroke="none"/>
      <circle cx="38" cy="38" r="37.5" fill="none"/>
    </g>
    <g id="Group_50588" data-name="Group 50588" transform="translate(514.053 1299.418)">
      <g id="Group_50587" data-name="Group 50587" transform="translate(0 0.001)" clip-path="url(#clip-path)">
        <path id="Path_74594" data-name="Path 74594" d="M0,17.056a19.343,19.343,0,0,0,1.062-2.542Q3.635,8.036,6.178,1.546C6.753.087,7.632-.306,9.081.26S12,1.411,13.462,1.982A1.879,1.879,0,0,1,14.82,3.961c-.015.268.094.342.3.435a8.868,8.868,0,0,0,3.657.855,24.7,24.7,0,0,1,7.537.813.441.441,0,0,0,.531-.137c.19-.209.4-.395.6-.6A4.737,4.737,0,0,1,31.9,3.9c.972.165,1.947.313,2.921.47.654.1,1.02.491.966,1.018-.058.559-.517.877-1.2.781-1.1-.153-2.188-.336-3.282-.506a2.642,2.642,0,0,0-2.376.769,56.357,56.357,0,0,1-8.475,7.08c-.539.358-.538.7-.043,1.1a3.533,3.533,0,0,0,3.478.567,11.63,11.63,0,0,0,4.195-2.563,2.114,2.114,0,0,1,3.288.077,10.429,10.429,0,0,0,9.126,3.135,1.694,1.694,0,0,1,1.338.366c2.259,1.687,4.54,3.347,6.8,5.039a.642.642,0,0,0,.888.028c.983-.666,1.987-1.3,3-1.927.324-.2.424-.367.266-.762q-2.416-6.053-4.782-12.125c-.147-.376-.282-.475-.7-.321a22.878,22.878,0,0,1-3.368,1.138,12.841,12.841,0,0,1-4.314-.295,5.356,5.356,0,0,1-.713-.126A.868.868,0,0,1,38.215,5.8a.82.82,0,0,1,.962-.715c.879.1,1.757.231,2.627.391a5.342,5.342,0,0,0,2.847-.292c.7-.254,1.391-.531,2.094-.773a.426.426,0,0,0,.344-.514,1.775,1.775,0,0,1,1.2-1.834C49.9,1.416,51.5.773,53.119.151A1.833,1.833,0,0,1,55.6,1.217c.792,1.958,1.558,3.926,2.324,5.894a.911.911,0,1,1-1.682.664c-.733-1.83-1.467-3.66-2.162-5.5-.158-.419-.317-.441-.689-.287q-2.007.828-4.04,1.6c-.345.131-.46.249-.3.644Q52,11.655,54.912,19.1c.147.375.3.432.665.282,1.358-.558,2.723-1.1,4.1-1.611.4-.15.387-.33.253-.662-.678-1.679-1.334-3.366-2-5.049a1.112,1.112,0,0,1-.06-.932.845.845,0,0,1,.758-.515.819.819,0,0,1,.872.521c.8,2,1.6,3.995,2.348,6.014a1.677,1.677,0,0,1-.918,2.032c-1.74.738-3.5,1.422-5.273,2.089a1.607,1.607,0,0,1-1.649-.308.481.481,0,0,0-.684-.017c-.924.61-1.853,1.214-2.8,1.793-.285.175-.293.344-.208.634a3.582,3.582,0,0,1-3.824,4.673c-.393-.035-.523.027-.612.431a3.5,3.5,0,0,1-3.666,2.853c-.426-.012-.572.066-.635.525a3.546,3.546,0,0,1-4.219,2.919c-.424-.09-.6-.077-.73.413a3.59,3.59,0,0,1-5.359,2.135,12.386,12.386,0,0,1-1.326-.948c-.252-.2-.4-.17-.58.076a6.624,6.624,0,0,1-.675.773,3.176,3.176,0,0,1-3.274.869,3.128,3.128,0,0,1-2.307-2.471c-.077-.345-.154-.5-.557-.518a3.165,3.165,0,0,1-3.1-2.622c-.074-.329-.184-.441-.544-.46a3.23,3.23,0,0,1-3.116-2.631c-.078-.351-.176-.475-.561-.487a3.244,3.244,0,0,1-2.911-4.521c.2-.464.1-.659-.285-.895-1.252-.769-2.49-1.561-3.728-2.354a.476.476,0,0,0-.594-.033,1.849,1.849,0,0,1-1.738.081c-1.569-.626-3.14-1.25-4.718-1.853A2.423,2.423,0,0,1,0,18.024Zm25.072-9.5a29.947,29.947,0,0,0-6.1-.494,9.28,9.28,0,0,1-4.32-.9c-.4-.2-.57-.135-.737.294Q11.5,12.64,9.045,18.807c-.172.431-.083.621.293.846,1.1.662,2.185,1.366,3.275,2.054,1.126.711,1.127.713,2.005-.32a4.721,4.721,0,0,1,1.627-1.412,3.3,3.3,0,0,1,4.571,2.309c.052.228,0,.489.418.524,1.895.158,2.753.9,3.282,2.8.062.223.14.27.353.289a3.235,3.235,0,0,1,3.292,2.789c.06.253.145.337.39.325a2.87,2.87,0,0,1,1.183.2,3.319,3.319,0,0,1,1.415,5.159c-.105.14-.46.294-.163.516a5.084,5.084,0,0,0,1.78,1.11,1.793,1.793,0,0,0,2.017-.968,1.6,1.6,0,0,0-.524-2.077c-.493-.382-1-.749-1.474-1.155a.88.88,0,0,1,.055-1.48.956.956,0,0,1,1.169.146c.958.736,1.907,1.487,2.89,2.189a1.818,1.818,0,0,0,2.619-.381,1.757,1.757,0,0,0-.507-2.479c-.749-.579-1.507-1.147-2.248-1.736a.907.907,0,1,1,1.108-1.426c.263.186.511.393.767.589.866.659,1.714,1.341,2.6,1.967a1.818,1.818,0,0,0,2.574-.391,1.785,1.785,0,0,0-.475-2.493c-.924-.6-1.768-1.333-2.642-2.014a.909.909,0,0,1,.313-1.64,1.081,1.081,0,0,1,.937.313q1.846,1.416,3.7,2.825a2.038,2.038,0,0,0,1.092.47,1.825,1.825,0,0,0,1.829-1.122,1.893,1.893,0,0,0-.74-2.237c-2.248-1.669-4.509-3.319-6.756-4.99a1.119,1.119,0,0,0-.839-.223,12.209,12.209,0,0,1-10.05-3.619c-.374-.361-.593-.379-.984-.031a12.946,12.946,0,0,1-4.655,2.845,5.33,5.33,0,0,1-5.345-.9,2.353,2.353,0,0,1,.18-3.937c.727-.506,1.466-1,2.173-1.529a40.1,40.1,0,0,0,3.52-2.945M6.65,19.493c.3-.018.288-.271.354-.438q2.927-7.4,5.848-14.805c.137-.346.146-.51-.256-.661C11.2,3.069,9.822,2.516,8.448,1.947c-.363-.149-.47-.027-.6.29Q4.921,9.7,1.961,17.155c-.136.343-.079.48.266.61,1.373.518,2.734,1.065,4.1,1.6l.323.126m8.675,7.61a1.209,1.209,0,0,0,.992-.365c.864-.98,1.735-1.957,2.533-2.991a1.384,1.384,0,0,0-.31-1.9,1.411,1.411,0,0,0-1.925.052c-.872.945-1.7,1.931-2.5,2.937a1.31,1.31,0,0,0-.058,1.486,1.413,1.413,0,0,0,1.272.777m7.409-.984a1.478,1.478,0,0,0-2.6-.994c-.749.841-1.479,1.7-2.2,2.568a1.486,1.486,0,1,0,2.248,1.938c.733-.829,1.441-1.68,2.156-2.524a1.482,1.482,0,0,0,.39-.989m3.519,10.291a1.373,1.373,0,0,0,1.1-.426c.82-.939,1.649-1.872,2.42-2.851a1.468,1.468,0,0,0-2.212-1.909c-.858.93-1.674,1.9-2.464,2.892a1.323,1.323,0,0,0-.061,1.537,1.406,1.406,0,0,0,1.215.757m.128-7.177a1.471,1.471,0,0,0-.914-1.41,1.407,1.407,0,0,0-1.65.379q-1.147,1.283-2.237,2.614a1.457,1.457,0,0,0,.139,2.149,1.5,1.5,0,0,0,2.145-.256c.718-.815,1.413-1.65,2.117-2.477a1.429,1.429,0,0,0,.4-1" transform="translate(0 0)" fill="#00ae8e"/>
      </g>
    </g>
  </g>
</svg>
