<svg xmlns="http://www.w3.org/2000/svg" width="76" height="76" viewBox="0 0 76 76">
  <g id="Group_50590" data-name="Group 50590" transform="translate(-507 -1145)">
    <g id="Ellipse_173" data-name="Ellipse 173" transform="translate(507 1145)" fill="#fff" stroke="#98d5c5" stroke-width="1">
      <circle cx="38" cy="38" r="38" stroke="none"/>
      <circle cx="38" cy="38" r="37.5" fill="none"/>
    </g>
    <g id="Group_49688" data-name="Group 49688" transform="translate(519.735 1156.432)">
      <g id="Group_49689" data-name="Group 49689" transform="translate(-1 0)">
        <path id="Path_73921" data-name="Path 73921" d="M28.936,7.643a11.081,11.081,0,1,1-5.472,1.439A11.085,11.085,0,0,1,28.936,7.643ZM28.918,27.81A9.079,9.079,0,1,0,21.066,14.2,9.079,9.079,0,0,0,28.918,27.81Z" transform="translate(-1.479 -0.853)" fill="#00ae8e"/>
        <path id="Path_73922" data-name="Path 73922" d="M30.313,26.02l-6.957-5.706h5.2a1.684,1.684,0,0,0,1.682-1.682v-3.3h2.01v3.3a3.7,3.7,0,0,1-3.3,3.671l2.636,2.162Z" transform="translate(-2.205 -1.504)" fill="#00ae8e"/>
        <path id="Line_124" data-name="Line 124" d="M9.265,1.01H0V-1H9.265Z" transform="translate(22.816 13.827)" fill="#00ae8e"/>
        <path id="Line_125" data-name="Line 125" d="M9.265,1.01H0V-1H9.265Z" transform="translate(22.816 16.94)" fill="#00ae8e"/>
        <path id="Path_73923" data-name="Path 73923" d="M16.483,51.061,5.691,40.651,6.064,39.6l.033-.063a13.739,13.739,0,0,1,4.057-4.4,13.088,13.088,0,0,1,5.341-2.2,16.222,16.222,0,0,1,7.526.627l11.46.033.047,0a4.547,4.547,0,0,1,1.847.67,4.121,4.121,0,0,1,1.065.968L43.9,28.571l.077-.054a5.192,5.192,0,0,1,1.641-.721,4,4,0,0,1,3.577.758l.052.042.046.049a4.848,4.848,0,0,1,1.169,1.864,4.121,4.121,0,0,1-.313,3.1c-.156.324-.632,1.31-5.213,6.558-2.227,2.552-4.37,4.9-4.392,4.925A10.37,10.37,0,0,1,33.1,47.971c-4.083-.032-11.777,0-12.471,0a5.175,5.175,0,0,0-3.47,2.123ZM8.067,40.15l8.186,7.9a7.271,7.271,0,0,1,4.24-2.082l.038,0h.038c.082,0,8.277-.034,12.545,0a8.817,8.817,0,0,0,4.392-1.092,6.955,6.955,0,0,0,1.556-1.134c3.254-3.567,8.652-9.708,9.273-11a2.089,2.089,0,0,0-.453-2.657,2.417,2.417,0,0,0-2.684.035l-6.929,7.157a5.681,5.681,0,0,1,.054.624v.033A4.187,4.187,0,0,1,37.3,40.674a3.615,3.615,0,0,1-2.509,1.283H23.308v-2.01h11.4a1.994,1.994,0,0,0,1.6-2A2.257,2.257,0,0,0,35.3,35.969a2.664,2.664,0,0,0-.935-.362l-11.653-.034-.146-.046a14.32,14.32,0,0,0-6.731-.609,11.092,11.092,0,0,0-4.527,1.866A12.171,12.171,0,0,0,8.067,40.15Z" transform="translate(-0.304 -2.816)" fill="#00ae8e"/>
        <path id="Path_73924" data-name="Path 73924" d="M12.07,54.745A7.545,7.545,0,0,1,6.806,52.62l-6.8-6.558a1,1,0,0,1-.026-1.421l4.567-4.735A1.005,1.005,0,0,1,5.97,39.88L17.5,51.005a1.005,1.005,0,0,1,.026,1.421A7.524,7.524,0,0,1,12.07,54.745ZM2.127,45.313,8.2,51.173a5.578,5.578,0,0,0,7.119.519L5.3,42.025Z" transform="translate(0.3 -3.986)" fill="#00ae8e"/>
        <path id="Line_126" data-name="Line 126" d="M1.01,4.839H-1V0H1.01Z" transform="translate(27.508 0)" fill="#00ae8e"/>
        <path id="Line_127" data-name="Line 127" d="M.7,4.894-.941.343.95-.34,2.594,4.212Z" transform="translate(21.095 1.017)" fill="#00ae8e"/>
        <path id="Line_128" data-name="Line 128" d="M.934,4.858-.924,4.09.924-.382,2.782.386Z" transform="translate(31.943 1.056)" fill="#00ae8e"/>
      </g>
    </g>
  </g>
</svg>
