<svg xmlns="http://www.w3.org/2000/svg" width="76" height="76" viewBox="0 0 76 76">
  <g id="Group_50589" data-name="Group 50589" transform="translate(-507 -1071)">
    <g id="Ellipse_172" data-name="Ellipse 172" transform="translate(507 1071)" fill="#fff" stroke="#98d5c5" stroke-width="1">
      <circle cx="38" cy="38" r="38" stroke="none"/>
      <circle cx="38" cy="38" r="37.5" fill="none"/>
    </g>
    <g id="Group_50585" data-name="Group 50585" transform="translate(518.682 1079.338)">
      <g id="Group_50586" data-name="Group 50586">
        <path id="Path_74592" data-name="Path 74592" d="M25.622,59.325c-.136-.137-.325-.1-.489-.147a4.74,4.74,0,0,1-3.417-5.737.535.535,0,0,0-.322-.714q-6.3-3.617-12.578-7.263a.569.569,0,0,0-.826.1A4.74,4.74,0,1,1,3.4,37.573a.543.543,0,0,0,.472-.634q-.016-7.27,0-14.54c0-.406-.127-.547-.513-.663a4.739,4.739,0,1,1,4.618-7.99.6.6,0,0,0,.874.094q6.226-3.624,12.479-7.2a.634.634,0,0,0,.37-.849,4.735,4.735,0,1,1,9.233,0,.634.634,0,0,0,.375.846q6.251,3.579,12.477,7.2a.6.6,0,0,0,.872-.094,4.7,4.7,0,0,1,5.321-.8,4.758,4.758,0,0,1,2.641,4.7,4.7,4.7,0,0,1-3.4,4.112c-.388.114-.459.291-.458.645q.014,7.241,0,14.482a.618.618,0,0,0,.524.715,4.523,4.523,0,0,1,3.3,3.872,4.58,4.58,0,0,1-2.014,4.572.922.922,0,0,1-1.127.1.852.852,0,0,1,.081-1.486,3.015,3.015,0,1,0-3.643-.3c.159.14.345.248.5.387a.859.859,0,0,1-.963,1.419,2.491,2.491,0,0,1-.735-.554c-.322-.4-.587-.309-.971-.085q-6.2,3.608-12.426,7.178c-.343.2-.471.351-.368.8a4.712,4.712,0,0,1-3.65,5.725,1.8,1.8,0,0,0-.261.1ZM30,51.44c.085-.048.187-.1.287-.16q6.362-3.675,12.727-7.345a.476.476,0,0,0,.277-.634A4.707,4.707,0,0,1,46.6,37.561c.361-.106.436-.266.435-.6q-.012-7.3,0-14.595c0-.383-.13-.51-.492-.616a4.7,4.7,0,0,1-3.256-5.669.537.537,0,0,0-.322-.719Q36.648,11.73,30.343,8.072a.5.5,0,0,0-.731.067,4.668,4.668,0,0,1-6.573.024c-.249-.236-.4-.294-.724-.108q-6.327,3.679-12.675,7.32a.511.511,0,0,0-.31.676,4.684,4.684,0,0,1-3.273,5.7c-.39.114-.464.283-.463.638q.013,7.269,0,14.537a.542.542,0,0,0,.464.639,4.683,4.683,0,0,1,3.273,5.7.511.511,0,0,0,.308.677q6.346,3.645,12.677,7.317A.466.466,0,0,0,23,51.2a4.683,4.683,0,0,1,6.662.01c.1.089.167.217.342.226M26.281,7.76A3.011,3.011,0,1,0,23.305,4.7a3.023,3.023,0,0,0,2.976,3.06m.025,49.825a3.011,3.011,0,1,0-3-3.035,3.023,3.023,0,0,0,3,3.035M50.891,17.2a2.989,2.989,0,0,0-3.02-3,3.005,3.005,0,0,0,.008,6.011A2.983,2.983,0,0,0,50.891,17.2M1.74,17.2a2.984,2.984,0,0,0,3.01,3.01A3,3,0,1,0,4.761,14.2a2.982,2.982,0,0,0-3.022,3m0,24.9a2.981,2.981,0,0,0,3,3.021,3,3,0,1,0,.036-6.006A2.982,2.982,0,0,0,1.74,42.1" transform="translate(0 0)" fill="#00ae8e"/>
        <path id="Path_74593" data-name="Path 74593" d="M103.5,95.845c-.96.554-1.837,1.072-2.727,1.566-.267.148-.237.366-.237.593,0,1.6-.024,3.206.009,4.807a1.926,1.926,0,0,1-1.111,1.921c-.784.413-1.537.886-2.31,1.322a1.285,1.285,0,0,1-2.089-1.188c-.009-1.2-.02-2.394.006-3.591.011-.509-.135-.49-.5-.268q-1.288.777-2.608,1.5a.5.5,0,0,0-.3.5q.007,6.487,0,12.974c0,.664.35.253.533.149q4.391-2.519,8.771-5.057c.668-.386,1.331-.781,2.008-1.15a1.024,1.024,0,0,0,.6-1.023c-.026-1.1-.013-2.2-.006-3.3,0-.721.335-1.112.9-1.1.542.015.829.385.832,1.094,0,1.158,0,2.317,0,3.475A2.423,2.423,0,0,1,104,111.312q-5.959,3.449-11.927,6.882a2.483,2.483,0,0,1-2.638-.021q-5.912-3.415-11.825-6.827a2.5,2.5,0,0,1-1.345-2.325q.01-6.834,0-13.669A2.5,2.5,0,0,1,77.6,93.027q5.915-3.41,11.825-6.827a2.481,2.481,0,0,1,2.638-.025q5.966,3.436,11.926,6.882a2.392,2.392,0,0,1,1.284,2.183c0,1.969.006,3.939,0,5.908,0,.627-.347,1.021-.857,1.021a.907.907,0,0,1-.874-1.02c-.011-1.66,0-3.321-.006-4.981,0-.075-.017-.151-.037-.323M89.9,109.514q0-3.185,0-6.37c0-.244.026-.462-.268-.631q-5.6-3.2-11.175-6.444c-.408-.237-.461-.125-.46.283q.014,6.283,0,12.567a1.007,1.007,0,0,0,.565.978q5.418,3.111,10.819,6.251c.455.265.531.15.528-.32-.015-2.1-.007-4.208-.007-6.312m4.251-10.279c-.228-.137-.391-.238-.556-.334-3.5-2.029-7.013-4.042-10.5-6.1a1.312,1.312,0,0,0-1.642-.013c-.794.552-1.668.989-2.511,1.477.058.085.065.106.08.114l11.308,6.545a.821.821,0,0,0,.877,0l2.943-1.692M102.6,94.35c-.057-.087-.063-.109-.077-.117q-5.65-3.27-11.3-6.54a.762.762,0,0,0-.773-.064c-.87.483-1.727.99-2.593,1.489.04.058.048.08.063.089q5.768,3.354,11.536,6.709a.374.374,0,0,0,.425.012c.895-.524,1.794-1.041,2.72-1.577m-18.59-3.007c3.923,2.269,7.759,4.488,11.595,6.709.152.088.288.18.476.068.592-.352,1.191-.694,1.809-1.052a1.154,1.154,0,0,0-.133-.12Q92.032,93.626,86.306,90.3a.425.425,0,0,0-.481-.021c-.577.345-1.16.679-1.815,1.061M98.8,98.563c-.683.393-1.276.737-1.872,1.077a.3.3,0,0,0-.148.291q0,2,0,3.99c0,.207.074.288.28.169.516-.3,1.036-.593,1.553-.891a.351.351,0,0,0,.19-.329c0-1.4,0-2.8,0-4.306" transform="translate(-64.455 -72.525)" fill="#00ae8e"/>
      </g>
    </g>
  </g>
</svg>
