<svg xmlns="http://www.w3.org/2000/svg" xmlns:xlink="http://www.w3.org/1999/xlink" width="98" height="98" viewBox="0 0 98 98">
  <defs>
    <linearGradient id="linear-gradient" x1="0.892" y1="0.13" x2="0.157" y2="0.864" gradientUnits="objectBoundingBox">
      <stop offset="0" stop-color="#fff"/>
      <stop offset="1" stop-color="#00ae8e"/>
    </linearGradient>
    <filter id="Ellipse_190" x="0" y="0" width="98" height="98" filterUnits="userSpaceOnUse">
      <feOffset dy="3" input="SourceAlpha"/>
      <feGaussianBlur stdDeviation="3" result="blur"/>
      <feFlood flood-color="#00ae8e" flood-opacity="0.373"/>
      <feComposite operator="in" in2="blur"/>
      <feComposite in="SourceGraphic"/>
    </filter>
  </defs>
  <g id="Group_50916" data-name="Group 50916" transform="translate(-320 -1840)">
    <circle id="Ellipse_189" data-name="Ellipse 189" cx="46" cy="46" r="46" transform="translate(323 1840)" fill="url(#linear-gradient)"/>
    <g transform="matrix(1, 0, 0, 1, 320, 1840)" filter="url(#Ellipse_190)">
      <circle id="Ellipse_190-2" data-name="Ellipse 190" cx="40" cy="40" r="40" transform="translate(9 6)" fill="#fff"/>
    </g>
    <g id="Group_50721" data-name="Group 50721" transform="translate(344.756 1869.403)">
      <g id="Group_50722" data-name="Group 50722" transform="translate(0.544 0.544)">
        <circle id="Ellipse_191" data-name="Ellipse 191" cx="4.361" cy="4.361" r="4.361" transform="translate(4.875 4.285)" fill="none" stroke="#7f3f98" stroke-linejoin="round" stroke-width="1.4"/>
        <path id="Path_74689" data-name="Path 74689" d="M11.224,51.321H5.835A4.334,4.334,0,0,0,1.5,55.655v8.918h8.762" transform="translate(-1.5 -34.673)" fill="none" stroke="#7f3f98" stroke-linejoin="round" stroke-width="1.4"/>
        <circle id="Ellipse_192" data-name="Ellipse 192" cx="4.361" cy="4.361" r="4.361" transform="translate(33.802 4.285)" fill="none" stroke="#7f3f98" stroke-linejoin="round" stroke-width="1.4"/>
        <path id="Path_74690" data-name="Path 74690" d="M115.211,64.132h8.762V55.655a4.334,4.334,0,0,0-4.334-4.334h-5.39" transform="translate(-76.574 -34.673)" fill="none" stroke="#7f3f98" stroke-linejoin="round" stroke-width="1.4"/>
        <path id="Path_74691" data-name="Path 74691" d="M65.929,8.045A6.545,6.545,0,1,1,59.384,1.5,6.545,6.545,0,0,1,65.929,8.045Z" transform="translate(-35.684 -1.5)" fill="none" stroke="#7f3f98" stroke-linejoin="round" stroke-width="1.4"/>
        <path id="Path_74692" data-name="Path 74692" d="M59.493,65.183V55.038a6.113,6.113,0,0,0-6.113-6.113H39.553a6.113,6.113,0,0,0-6.113,6.113V65.183" transform="translate(-22.767 -33.078)" fill="none" stroke="#7f3f98" stroke-linejoin="round" stroke-width="1.4"/>
      </g>
    </g>
  </g>
</svg>
