<svg xmlns="http://www.w3.org/2000/svg" xmlns:xlink="http://www.w3.org/1999/xlink" width="98" height="98" viewBox="0 0 98 98">
  <defs>
    <linearGradient id="linear-gradient" x1="0.892" y1="0.13" x2="0.157" y2="0.864" gradientUnits="objectBoundingBox">
      <stop offset="0" stop-color="#fff"/>
      <stop offset="1" stop-color="#00ae8e"/>
    </linearGradient>
    <filter id="Ellipse_194" x="0" y="0" width="98" height="98" filterUnits="userSpaceOnUse">
      <feOffset dy="3" input="SourceAlpha"/>
      <feGaussianBlur stdDeviation="3" result="blur"/>
      <feFlood flood-color="#00ae8e" flood-opacity="0.373"/>
      <feComposite operator="in" in2="blur"/>
      <feComposite in="SourceGraphic"/>
    </filter>
  </defs>
  <g id="Group_50726" data-name="Group 50726" transform="translate(-320 -1964)">
    <circle id="Ellipse_193" data-name="Ellipse 193" cx="46" cy="46" r="46" transform="translate(323 1964)" fill="url(#linear-gradient)"/>
    <g transform="matrix(1, 0, 0, 1, 320, 1964)" filter="url(#Ellipse_194)">
      <circle id="Ellipse_194-2" data-name="Ellipse 194" cx="40" cy="40" r="40" transform="translate(9 6)" fill="#fff"/>
    </g>
    <g id="Group_50724" data-name="Group 50724" transform="translate(349.792 1987.208)">
      <g id="Group_50725" data-name="Group 50725" transform="translate(0 0)">
        <rect id="Rectangle_20517" data-name="Rectangle 20517" width="6.107" height="10.443" transform="translate(1.231 30.842)" fill="none" stroke="#7f3f98" stroke-width="1.4"/>
        <rect id="Rectangle_20518" data-name="Rectangle 20518" width="6.107" height="15.633" transform="translate(11.589 25.652)" fill="none" stroke="#7f3f98" stroke-width="1.4"/>
        <rect id="Rectangle_20519" data-name="Rectangle 20519" width="6.107" height="20.885" transform="translate(21.752 20.4)" fill="none" stroke="#7f3f98" stroke-width="1.4"/>
        <rect id="Rectangle_20520" data-name="Rectangle 20520" width="6.107" height="26.205" transform="translate(31.582 15.08)" fill="none" stroke="#7f3f98" stroke-width="1.4"/>
        <line id="Line_156" data-name="Line 156" x2="36.671" transform="translate(1.018 41.285)" fill="none" stroke="#7f3f98" stroke-width="1.4"/>
        <ellipse id="Ellipse_195" data-name="Ellipse 195" cx="8.465" cy="8.465" rx="8.465" ry="8.465" transform="translate(-0.273 3.47)" fill="none" stroke="#7f3f98" stroke-width="1.4"/>
        <path id="Path_74694" data-name="Path 74694" d="M8.975,18.762,10.2,10.378l8.5.416" transform="translate(-2.01 1.557)" fill="none" stroke="#7f3f98" stroke-width="1.4"/>
      </g>
    </g>
  </g>
</svg>
