<svg xmlns="http://www.w3.org/2000/svg" xmlns:xlink="http://www.w3.org/1999/xlink" width="98" height="98" viewBox="0 0 98 98">
  <defs>
    <linearGradient id="linear-gradient" x1="0.892" y1="0.13" x2="0.157" y2="0.864" gradientUnits="objectBoundingBox">
      <stop offset="0" stop-color="#fff"/>
      <stop offset="1" stop-color="#00ae8e"/>
    </linearGradient>
    <filter id="Ellipse_187" x="0" y="0" width="98" height="98" filterUnits="userSpaceOnUse">
      <feOffset dy="3" input="SourceAlpha"/>
      <feGaussianBlur stdDeviation="3" result="blur"/>
      <feFlood flood-color="#00ae8e" flood-opacity="0.373"/>
      <feComposite operator="in" in2="blur"/>
      <feComposite in="SourceGraphic"/>
    </filter>
  </defs>
  <g id="Group_50719" data-name="Group 50719" transform="translate(-320 -1696)">
    <circle id="Ellipse_188" data-name="Ellipse 188" cx="46" cy="46" r="46" transform="translate(323 1696)" fill="url(#linear-gradient)"/>
    <g transform="matrix(1, 0, 0, 1, 320, 1696)" filter="url(#Ellipse_187)">
      <circle id="Ellipse_187-2" data-name="Ellipse 187" cx="40" cy="40" r="40" transform="translate(9 6)" fill="#fff"/>
    </g>
    <g id="Group_50716" data-name="Group 50716" transform="translate(344.815 1717.783)">
      <g id="Group_50717" data-name="Group 50717" transform="translate(0.921 0.921)">
        <path id="Path_74684" data-name="Path 74684" d="M32.957,22.62l-5.3-4.347h2.65A2.976,2.976,0,0,0,33.283,15.3V11.645" transform="translate(-5.965 -2.838)" fill="none" stroke="#7f3f98" stroke-width="1.4"/>
        <line id="Line_152" data-name="Line 152" x2="10.263" transform="translate(20.423 8.808)" fill="none" stroke="#7f3f98" stroke-width="1.4"/>
        <line id="Line_153" data-name="Line 153" x2="10.263" transform="translate(20.423 12.256)" fill="none" stroke="#7f3f98" stroke-width="1.4"/>
        <path id="Path_74685" data-name="Path 74685" d="M36.812,37.757l6.994-7.224a3.354,3.354,0,0,1,3.874,0,3.011,3.011,0,0,1,.657,3.71c-.888,1.839-9.129,10.868-9.129,10.868a9.077,9.077,0,0,1-6.469,2.463c-4.17-.033-12.116,0-12.116,0a6.006,6.006,0,0,0-4.1,2.468L7.363,41.206l.128-.362s4.532-8.669,15.351-5.254l11.18.033a3.184,3.184,0,0,1,2.791,3.218,2.875,2.875,0,0,1-2.5,2.922H23.268" transform="translate(-2.001 -6.401)" fill="none" stroke="#7f3f98" stroke-width="1.4"/>
        <path id="Path_74686" data-name="Path 74686" d="M16.265,53.574h0a6.36,6.36,0,0,1-8.993.162L.7,47.4l4.415-4.578Z" transform="translate(-0.7 -8.927)" fill="none" stroke="#7f3f98" stroke-linejoin="round" stroke-width="1.4"/>
        <line id="Line_154" data-name="Line 154" x1="1.471" y1="1.471" transform="translate(9.28 42.592)" fill="#fff" stroke="#7f3f98" stroke-width="1.4"/>
        <line id="Line_155" data-name="Line 155" x1="1.471" y1="1.471" transform="translate(9.28 42.592)" fill="none" stroke="#7f3f98" stroke-linejoin="round" stroke-width="1.4"/>
        <path id="Path_74687" data-name="Path 74687" d="M35.817,2.427A12.88,12.88,0,1,1,18.225,7.145,12.88,12.88,0,0,1,35.817,2.427Z" transform="translate(-3.786 -0.7)" fill="none" stroke="#7f3f98" stroke-width="1.4"/>
      </g>
    </g>
  </g>
</svg>
