<svg xmlns="http://www.w3.org/2000/svg" xmlns:xlink="http://www.w3.org/1999/xlink" width="168" height="74" viewBox="0 0 168 74">
  <defs>
    <clipPath id="clip-path">
      <rect id="Rectangle_20562" data-name="Rectangle 20562" width="49.648" height="53.231" fill="#7f3f98"/>
    </clipPath>
  </defs>
  <g id="Group_50770" data-name="Group 50770" transform="translate(-323 -1213)">
    <rect id="Rectangle_20558" data-name="Rectangle 20558" width="168" height="74" rx="8" transform="translate(323 1213)" fill="#fff"/>
    <g id="Group_50769" data-name="Group 50769" transform="translate(382.176 1223.385)">
      <g id="Group_50768" data-name="Group 50768" clip-path="url(#clip-path)">
        <path id="Path_74705" data-name="Path 74705" d="M0,26.55c0-5.846-.01-11.692,0-17.537A8.805,8.805,0,0,1,7.417.13,9.452,9.452,0,0,1,9.1.007Q21.293,0,33.482,0A8.853,8.853,0,0,1,42.551,9c.01.974-.01,1.949.007,2.923.006.356-.067.535-.478.522-.876-.027-1.754-.023-2.63,0-.365.009-.47-.125-.463-.475.018-.954.011-1.909,0-2.864a5.281,5.281,0,0,0-5.547-5.543q-9.909-.012-19.817,0c-1.52,0-3.04-.007-4.56,0A5.293,5.293,0,0,0,3.539,9.12q0,17.479,0,34.958A5.3,5.3,0,0,0,9.112,49.66q11.078.01,22.156-.01c.541,0,.7.145.673.68-.045.8-.033,1.6,0,2.4.015.4-.13.5-.5.495-1.344-.016-2.689-.006-4.034-.006q-9.178,0-18.356,0A8.879,8.879,0,0,1,.326,46.745,9.769,9.769,0,0,1,0,44.029q.007-8.74,0-17.479" transform="translate(0 0)" fill="#7f3f98"/>
        <path id="Path_74706" data-name="Path 74706" d="M210.282,121.682c.164,2.643.333,5.287.484,7.931.02.344.121.479.478.474,1.13-.017,2.26-.014,3.389,0,.327,0,.434-.12.453-.441q.346-5.8.714-11.6c.035-.56-.1-1.3.209-1.627s1.062-.044,1.62-.032c.447.01.895.088,1.341.079.409-.008.481.167.457.528-.139,2.1-.257,4.2-.389,6.3-.177,2.818-.364,5.636-.541,8.454a1.827,1.827,0,0,1-1.985,1.9c-.428.007-.859.026-1.285-.006-.4-.03-.537.1-.53.515.023,1.539-.019,3.078.024,4.616.016.586-.176.729-.725.7-.777-.046-1.559-.032-2.337,0-.418.015-.525-.139-.52-.538.02-1.539-.022-3.078.023-4.616.018-.588-.173-.745-.719-.687a7.63,7.63,0,0,1-1.226,0,1.793,1.793,0,0,1-1.854-1.846q-.57-8.95-1.127-17.9c-.026-.427-.132-.573-.571-.552-.5.024-1.155.221-1.466-.08-.341-.33-.089-1-.112-1.513-.021-.447.022-.9-.012-1.343s.082-.609.565-.593c1.148.038,2.3,0,3.447.021.39.008.551-.079.539-.507-.029-1.012-.024-2.026,0-3.038.008-.389-.083-.56-.514-.545-.48.017-1.11.219-1.409-.086-.322-.328-.089-.963-.107-1.464-.018-.525.01-1.052-.009-1.578-.011-.312.112-.4.409-.395q5.932.011,11.863,0c.335,0,.436.107.429.434q-.027,1.314,0,2.629c.007.343-.081.525-.452.472a.807.807,0,0,0-.117,0c-1.485.016-1.485.016-1.485,1.484,0,.721.014,1.442-.005,2.162-.009.329.1.436.433.432,1.207-.017,2.416.011,3.623-.016.419-.01.527.128.514.528-.028.817-.035,1.637,0,2.454.021.464-.127.587-.586.585-3.565-.018-7.13-.01-10.694-.01-.9,0-.752-.031-.7.752q.232,3.79.462,7.581h.005m1.889-13.866v.931c0,1.11,0,1.095,1.112,1.074.337-.006.427-.114.419-.435-.019-.853-.006-1.707-.006-2.56,0-1.13,0-1.115-1.113-1.084-.342.009-.429.129-.417.446.021.542.006,1.086.006,1.629" transform="translate(-172.152 -86.234)" fill="#7f3f98"/>
        <path id="Path_74707" data-name="Path 74707" d="M54.162,63.14c-1.383,0-2.767.026-4.15-.006a5.152,5.152,0,0,1-5.12-4.614,49.282,49.282,0,0,1,0-8.52,5.138,5.138,0,0,1,5.073-4.6c1.674-.045,3.351,0,5.026-.018.316,0,.455.075.447.42-.019.9-.023,1.793,0,2.688.011.382-.153.448-.484.446-1.481-.012-2.961-.009-4.442,0-1.519,0-2.165.654-2.167,2.174q0,3.156,0,6.312c0,1.523.642,2.151,2.179,2.152,2.611,0,5.222.016,7.832-.012.529-.006.669.155.642.66-.041.777-.033,1.559,0,2.337.017.44-.087.609-.572.6-1.421-.035-2.844-.012-4.266-.012Z" transform="translate(-37.726 -38.293)" fill="#7f3f98"/>
        <path id="Path_74708" data-name="Path 74708" d="M54.359,199.31c-1.538,0-3.088.124-4.611-.027a5.05,5.05,0,0,1-4.711-4.83,72.351,72.351,0,0,1,0-7.94,5.146,5.146,0,0,1,5.049-4.882c1.711-.075,3.427-.015,5.14-.031.311,0,.4.112.4.408-.013.857-.027,1.714.005,2.57.017.449-.1.606-.577.6-1.479-.029-2.96-.013-4.44-.01a1.817,1.817,0,0,0-2.077,2.072q-.008,3.242,0,6.485a1.828,1.828,0,0,0,2.08,2.08c2.648.005,5.3.013,7.945-.008.479,0,.649.123.626.617-.038.816-.026,1.636,0,2.453.01.382-.117.5-.5.492-1.441-.021-2.882-.009-4.323-.009v-.037" transform="translate(-37.911 -153.228)" fill="#7f3f98"/>
        <path id="Path_74709" data-name="Path 74709" d="M88.143,70.912a1.737,1.737,0,0,1-1.309-.542c-1.083-1.064-2.155-2.14-3.252-3.189-.271-.259-.24-.4.012-.638q.975-.923,1.9-1.9c.231-.243.367-.238.594,0,.536.565,1.117,1.086,1.646,1.656.276.3.44.3.731,0,1.692-1.721,3.413-3.415,5.108-5.134.269-.273.422-.343.72-.024.6.641,1.233,1.245,1.873,1.842.25.233.291.368.019.637q-3.364,3.326-6.7,6.683a1.812,1.812,0,0,1-1.345.6" transform="translate(-70.366 -51.419)" fill="#7f3f98"/>
        <path id="Path_74710" data-name="Path 74710" d="M88.158,207.3a1.722,1.722,0,0,1-1.268-.519c-1.094-1.054-2.175-2.121-3.279-3.164-.254-.24-.221-.378.009-.6.659-.635,1.309-1.28,1.939-1.944.223-.234.352-.194.551.014.526.548,1.088,1.062,1.6,1.621.294.321.472.362.807.017,1.668-1.719,3.379-3.4,5.044-5.119.354-.367.528-.332.839.02.566.642,1.17,1.252,1.781,1.852.239.235.225.375-.008.605q-3.365,3.327-6.713,6.673a1.727,1.727,0,0,1-1.3.542" transform="translate(-70.401 -166.519)" fill="#7f3f98"/>
      </g>
    </g>
  </g>
</svg>
