<svg xmlns="http://www.w3.org/2000/svg" xmlns:xlink="http://www.w3.org/1999/xlink" width="168" height="74" viewBox="0 0 168 74">
  <defs>
    <clipPath id="clip-path">
      <rect id="Rectangle_20561" data-name="Rectangle 20561" width="36.272" height="50.173" fill="#7f3f98"/>
    </clipPath>
  </defs>
  <g id="Group_50766" data-name="Group 50766" transform="translate(-323 -1327)">
    <rect id="Rectangle_20559" data-name="Rectangle 20559" width="168" height="74" rx="8" transform="translate(323 1327)" fill="#fff"/>
    <g id="Group_50765" data-name="Group 50765" transform="translate(389 1341)">
      <g id="Group_50764" data-name="Group 50764" clip-path="url(#clip-path)">
        <path id="Path_74701" data-name="Path 74701" d="M29.369,34.993a26.185,26.185,0,0,0,3.744,8.4,41.326,41.326,0,0,0,4.2,4.8q10.455,11.468,20.953,22.9c.115.125.367.232.252.441-.081.149-.309.074-.471.074q-3.754.005-7.508,0c-.989,0-1.257.274-1.258,1.271,0,2.148,0,4.3,0,6.443a.954.954,0,0,1-.067.6c-.224-.041-.279-.242-.379-.382Q38.607,65.163,28.393,50.782a12.949,12.949,0,0,1,.749-15.433,3.94,3.94,0,0,0,.227-.356" transform="translate(-22.274 -29.752)" fill="#7f3f98"/>
        <path id="Path_74702" data-name="Path 74702" d="M74.815,10.417a9.911,9.911,0,0,0-14.252.014,16.78,16.78,0,0,1-1.491-3.282,22.258,22.258,0,0,1-.782-3.03.715.715,0,0,1,.289-.766,13.964,13.964,0,0,1,18.184.026.682.682,0,0,1,.317.7,20.686,20.686,0,0,1-2.134,6.156,1.543,1.543,0,0,1-.132.179" transform="translate(-49.543 0)" fill="#7f3f98"/>
        <path id="Path_74703" data-name="Path 74703" d="M139.749,35.827a12.933,12.933,0,0,1,.655,16.15q-1.952,2.7-3.856,5.434c-.239.343-.361.4-.675.056q-2.773-3.082-5.6-6.117c-.286-.307-.267-.468.007-.761,1.251-1.335,2.47-2.7,3.712-4.044a23.2,23.2,0,0,0,5.625-10.361c.022-.089.062-.174.128-.356" transform="translate(-110.589 -30.461)" fill="#7f3f98"/>
        <path id="Path_74704" data-name="Path 74704" d="M10.424,201.539l5.158,7.263c.422.594.839,1.19,1.268,1.778a.356.356,0,0,1,.031.491q-3.71,5.2-7.409,10.4c-.019.027-.062.036-.1.058-.185-.164-.094-.383-.094-.571-.008-2.148,0-4.3-.005-6.444,0-1.052-.265-1.311-1.337-1.312q-3.754,0-7.509,0c-.138,0-.332.075-.4-.087s.118-.254.211-.355q4.99-5.459,9.985-10.913a3.322,3.322,0,0,0,.211-.3" transform="translate(0 -171.355)" fill="#7f3f98"/>
      </g>
    </g>
  </g>
</svg>
